<svg xmlns="http://www.w3.org/2000/svg" width="1000" height="205" viewBox="0 0 1000 205" role="img" aria-labelledby="title"><title id="title">ProtectedPasteboard — policy-driven clipboard security for iOS. Swift package by yatimi.</title><defs><linearGradient id="fill" x1="0" y1="0" x2="0" y2="1"><stop stop-color="#73e2c7" stop-opacity=".25"/><stop offset="1" stop-color="#73e2c7" stop-opacity="0"/></linearGradient></defs><rect x="1" y="1" width="998" height="203" rx="22" fill="#0b101b" stroke="#26344d"/><text x="28" y="33" fill="#95a6c1" font-family="-apple-system,BlinkMacSystemFont,Segoe UI,Arial,sans-serif" font-size="11" font-weight="600" text-anchor="start">FEATURED / OPEN SOURCE</text><text x="28" y="79" fill="#eef4ff" font-family="-apple-system,BlinkMacSystemFont,Segoe UI,Arial,sans-serif" font-size="37" font-weight="650" text-anchor="start">ProtectedPasteboard</text><text x="28" y="113" fill="#95a6c1" font-family="-apple-system,BlinkMacSystemFont,Segoe UI,Arial,sans-serif" font-size="17" font-weight="400" text-anchor="start">Clipboard security, expressed as policy.</text><rect x="28" y="139" width="138" height="29" rx="7" fill="#121b2b" stroke="#26344d"/><text x="97" y="158" fill="#73e2c7" font-family="-apple-system,BlinkMacSystemFont,Segoe UI,Arial,sans-serif" font-size="10" font-weight="600" text-anchor="middle">DEVICE SCOPE</text><rect x="184" y="139" width="138" height="29" rx="7" fill="#121b2b" stroke="#26344d"/><text x="253" y="158" fill="#b5a0ff" font-family="-apple-system,BlinkMacSystemFont,Segoe UI,Arial,sans-serif" font-size="10" font-weight="600" text-anchor="middle">EXPIRATION</text><rect x="340" y="139" width="138" height="29" rx="7" fill="#121b2b" stroke="#26344d"/><text x="409" y="158" fill="#b5a0ff" font-family="-apple-system,BlinkMacSystemFont,Segoe UI,Arial,sans-serif" font-size="10" font-weight="600" text-anchor="middle">CONTENT RULES</text><circle cx="858" cy="101" r="55" fill="#121b2b"/><path d="M836 83L858 73L880 83V103C880 119 858 134 858 134S836 119 836 103Z" fill="none" stroke="#73e2c7" stroke-width="2.5" stroke-linejoin="round" stroke-linecap="round"/><path d="M848 102L855 109L869 91" fill="none" stroke="#73e2c7" stroke-width="2.5" stroke-linejoin="round" stroke-linecap="round"/><text x="968" y="181" fill="#ffb280" font-family="-apple-system,BlinkMacSystemFont,Segoe UI,Arial,sans-serif" font-size="11" font-weight="600" text-anchor="end">EXPLORE →</text></svg>
